Input #0, mov,mp4,m4a,3gp,3g2,mj2, from 'C:\Users\sulta\OneDrive - Invesense Asset Management Limited\Documents\remotion\benchmarks\.cache\source\whatsapp-video-2026-04-30-at-34234-pm-4-b1b546c3.mp4':
  Metadata:
    major_brand     : mp42
    minor_version   : 0
    compatible_brands: mp42isom
  Duration: 00:00:56.43, start: 0.000000, bitrate: 940 kb/s
  Stream #0:0[0x1](und): Video: h264 (Baseline) (avc1 / 0x31637661), yuv420p(tv, bt709, progressive), 576x1024, 876 kb/s, 24.44 fps, 60 tbr, 600 tbn (default)
  Stream #0:1[0x2](und): Audio: aac (LC) (mp4a / 0x6134706D), 44100 Hz, stereo, fltp, 62 kb/s (default)
Stream mapping:
  Stream #0:0 -> #0:0 (h264 (native) -> wrapped_avframe (native))
Press [q] to stop, [?] for help
Output #0, null, to 'NUL':
  Metadata:
    major_brand     : mp42
    minor_version   : 0
    compatible_brands: mp42isom
    encoder         : Lavf62.12.101
  Stream #0:0(und): Video: wrapped_avframe, yuv420p(tv, bt709, progressive), 576x1024, q=2-31, 200 kb/s, 60 fps, 60 tbn (default)
    Metadata:
      encoder         : Lavc62.28.101 wrapped_avframe
[Parsed_scdet_0 @ 000001e1bc566940] lavfi.scd.score: 12.175, lavfi.scd.time: 3.833333
[Parsed_scdet_0 @ 000001e1bc566940] lavfi.scd.score: 14.689, lavfi.scd.time: 35.583333
[Parsed_scdet_0 @ 000001e1bc566940] lavfi.scd.score: 75.113, lavfi.scd.time: 52.416667
[Parsed_scdet_0 @ 000001e1bc566940] lavfi.scd.score: 19.316, lavfi.scd.time: 52.45
[out#0/null @ 000001e1bc565a80] video:571KiB audio:0KiB subtitle:0KiB other streams:0KiB global headers:0KiB muxing overhead: unknown
frame= 1379 fps=0.0 q=-0.0 Lsize=N/A time=00:00:56.43 bitrate=N/A speed= 524x elapsed=0:00:00.10    
